{"title":"Layer Cake-720p MP4 AAC x264 BRRip 2004-CC","uid":7278797,"size":2063089273,"categoryP":"video","categoryS":"hd___movies","magnet":"?xt=urn:btih:06c61000681e4b9999f6c45d44676ba85f6864be&amp;dn=Layer+Cake-720p+MP4+AAC+x264+BRRip+2004-CC&amp;tr=udp%3A%2F%2Ftracker.openbittorrent.com%3A80&amp;tr=udp%3A%2F%2Fopen.demonii.com%3A1337&amp;tr=udp%3A%2F%2Ftracker.coppersurfer.tk%3A6969&amp;tr=udp%3A%2F%2Fexodus.desync.com%3A6969","seeders":4,"leechers":0,"uploader":"Caveman44","files":-1,"time":1337374424,"description":"Source: Layer.Cake.2004.BluRay.720p.AC3.x264.dxva-EuReKa\n\nSubs: Arabic, Brazilian, Bulgarian, Danish, Dutch, English, Finnish, French, Greek, Icelandic, Indonesian, Norwegian, Romanian, Servian, Swedish and Vietnamese.\n\nSample and Screens included.\n\nGeneral\nComplete name                    : Layer Cake-720p MP4 AAC x264 BRRip 2004-CC.mp4\nFormat                           : MPEG-4\nFormat profile                   : Base Media\nCodec ID                         : isom\nFile size                        : 1.89 GiB\nDuration                         : 1h 45mn\nOverall bit rate                 : 2 574 Kbps\nEncoded date                     : UTC 2012-05-13 14:58:56\n\nVideo\nID                               : 1\nFormat                           : AVC\nFormat/Info                      : Advanced Video Codec\nFormat profile                   : &lt;a class=&quot;__cf_email__&quot; href=&quot;/cdn-cgi/l/email-protection&quot; data-cfemail=&quot;2068494748606c130e11&quot;&gt;[email&amp;#160;protected]&lt;/a&gt;&lt;script cf-hash='f9e31' type=&quot;text/javascript&quot;&gt;\n/* &lt;![CDATA[ */!function(){try{var t=&quot;currentScript&quot;in document?document.currentScript:function(){for(var t=document.getElementsByTagName(&quot;script&quot;),e=t.length;e--;)if(t[e].getAttribute(&quot;cf-hash&quot;))return t[e]}();if(t&amp;&amp;t.previousSibling){var e,r,n,i,c=t.previousSibling,a=c.getAttribute(&quot;data-cfemail&quot;);if(a){for(e=&quot;&quot;,r=parseInt(a.substr(0,2),16),n=2;a.length-n;n+=2)i=parseInt(a.substr(n,2),16)^r,e+=String.fromCharCode(i);e=document.createTextNode(e),c.parentNode.replaceChild(e,c)}}}catch(u){}}();/* ]]&gt; */&lt;/script&gt;\nFormat settings, CABAC           : Yes\nFormat settings, ReFrames        : 5 frames\nCodec ID                         : avc1\nCodec ID/Info                    : Advanced Video Coding\nDuration                         : 1h 45mn\nBit rate mode                    : Variable\nBit rate                         : 2 185 Kbps\nNominal bit rate                 : 2 212 Kbps\nMaximum bit rate                 : 25.9 Mbps\nWidth                            : 1 280 pixels\nHeight                           : 528 pixels\nDisplay aspect ratio             : 2.40:1\nFrame rate mode                  : Variable\nFrame rate                       : 23.976 fps\nMinimum frame rate               : 19.048 fps\nMaximum frame rate               : 24.390 fps\nResolution                       : 24 bits\nColorimetry                      : 4:2:0\nScan type                        : Progressive\nBits/(Pixel*Frame)               : 0.135\nStream size                      : 1.61 GiB (85%)\nWriting library                  : x264 core 112\n\nAudio\nID                               : 2\nFormat                           : AAC\nFormat/Info                      : Advanced Audio Codec\nFormat version                   : Version 4\nFormat profile                   : LC\nFormat settings, SBR             : No\nCodec ID                         : 40\nDuration                         : 1h 45mn\nBit rate mode                    : Variable\nBit rate                         : 384 Kbps\nMaximum bit rate                 : 585 Kbps\nChannel(s)                       : 6 channels\nChannel positions                : Front: L C R, Rear: L R, LFE\nSampling rate                    : 48.0 KHz\nResolution                       : 16 bits\nStream size                      : 289 MiB (15%)\nLanguage                         : English\n\nEnjoy...\n\nRequested by DreamExtractor.","torrent":{"xt":"urn:btih:06c61000681e4b9999f6c45d44676ba85f6864be","amp;dn":"Layer+Cake-720p+MP4+AAC+x264+BRRip+2004-CC","amp;tr":["udp%3A%2F%2Ftracker.openbittorrent.com%3A80","udp%3A%2F%2Fopen.demonii.com%3A1337","udp%3A%2F%2Ftracker.coppersurfer.tk%3A6969","udp%3A%2F%2Fexodus.desync.com%3A6969"],"infoHash":"06c61000681e4b9999f6c45d44676ba85f6864be","infoHashBuffer":{"type":"Buffer","data":[6,198,16,0,104,30,75,153,153,246,196,93,68,103,107,168,95,104,100,190]},"announce":[],"urlList":[]}}